<?xml version="1.0" standalone="no"?>
<!DOCTYPE svg PUBLIC "-//W3C//DTD SVG 1.1//EN" "http://www.w3.org/Graphics/SVG/1.1/DTD/svg11.dtd" >
<!--
2013-9-30: Created.
-->
<svg>
<metadata>
Created by iconfont
</metadata>
<defs>

<font id="iconfont" horiz-adv-x="1024" >
  <font-face
    font-family="iconfont"
    font-weight="500"
    font-stretch="normal"
    units-per-em="1024"
    ascent="896"
    descent="-128"
  />
    <missing-glyph />
    
    <glyph glyph-name="fenxiang" unicode="&#58916;" d="M972.8 346.0864v-294.7584A128.0768 128.0768 0 0 0 844.8-76.8H179.2a128 128 0 0 0-128 128V716.8c0 70.7328 57.1904 128 127.872 128h202.3168a25.6 25.6 0 0 1 0 51.2H179.072A179.072 179.072 0 0 1 0 716.8v-665.6a179.2 179.2 0 0 1 179.2-179.2h665.6c98.944 0 179.2 80.2816 179.2 179.328V346.0864a25.6 25.6 0 0 1-51.2 0zM960 768c-353.4592 0-640-286.5408-640-640a25.6 25.6 0 0 1 51.2 0c0 325.1968 263.6032 588.8 588.8 588.8a25.6 25.6 0 0 1 0 51.2zM720.1024 833.8432l256-102.4a25.6 25.6 0 0 1 18.9952 47.5136l-256 102.4a25.6 25.6 0 0 1-18.9952-47.5136zM808.8064 547.5328l194.6368 189.312a25.6 25.6 0 1 1-35.6864 36.7104L773.12 584.2432a25.6 25.6 0 1 1 35.6864-36.7104z"  horiz-adv-x="1024" />

    
    <glyph glyph-name="guanbi" unicode="&#58917;" d="M512 439.689846L94.247385 857.442462a39.542154 39.542154 0 0 1-55.689847 0 39.266462 39.266462 0 0 1 0-55.689847L456.310154 384 38.557538-33.752615a39.542154 39.542154 0 0 1 0-55.689847 39.266462 39.266462 0 0 1 55.689847 0L512 328.310154l417.752615-417.752616c15.163077-15.163077 40.290462-15.36 55.689847 0a39.266462 39.266462 0 0 1 0 55.689847L567.689846 384 985.442462 801.752615a39.542154 39.542154 0 0 1 0 55.689847 39.266462 39.266462 0 0 1-55.689847 0L512 439.689846z"  horiz-adv-x="1024" />

    
    <glyph glyph-name="bofang" unicode="&#58918;" d="M512 896C230.4 896 0 665.6 0 384s230.4-512 512-512 512 230.4 512 512S793.6 896 512 896z m0-981.333333C253.866667-85.333333 42.666667 125.866667 42.666667 384S253.866667 853.333333 512 853.333333s469.333333-211.2 469.333333-469.333333-211.2-469.333333-469.333333-469.333333zM672 454.4l-170.666667 113.066667c-57.6 38.4-106.666667 12.8-106.666666-57.6v-256c0-70.4 46.933333-96 106.666666-57.6l170.666667 113.066666c57.6 42.666667 57.6 106.666667 0 145.066667z"  horiz-adv-x="1024" />

    
    <glyph glyph-name="jiantoushang" unicode="&#58924;" d="M910.222222 99.555556c-17.066667 0-34.133333 5.688889-45.511111 17.066666L551.822222 486.4c-11.377778 5.688889-17.066667 11.377778-34.133333 11.377778-5.688889 0-22.755556-5.688889-28.444445-11.377778l-329.955555-364.088889c-22.755556-22.755556-56.888889-22.755556-79.644445-5.688889-22.755556 22.755556-22.755556 56.888889-5.688888 79.644445l329.955555 364.088889c28.444444 34.133333 73.955556 51.2 119.466667 51.2s85.333333-22.755556 119.466666-56.888889l312.888889-364.088889c22.755556-22.755556 17.066667-56.888889-5.688889-79.644445-11.377778-5.688889-28.444444-11.377778-39.822222-11.377777z"  horiz-adv-x="1024" />

    
    <glyph glyph-name="jiantoushang1" unicode="&#58925;" d="M910.222222 99.555556c-17.066667 0-34.133333 5.688889-45.511111 17.066666L551.822222 486.4c-11.377778 5.688889-17.066667 11.377778-34.133333 11.377778-5.688889 0-22.755556-5.688889-28.444445-11.377778l-329.955555-364.088889c-22.755556-22.755556-56.888889-22.755556-79.644445-5.688889-22.755556 22.755556-22.755556 56.888889-5.688888 79.644445l329.955555 364.088889c28.444444 34.133333 73.955556 51.2 119.466667 51.2s85.333333-22.755556 119.466666-56.888889l312.888889-364.088889c22.755556-22.755556 17.066667-56.888889-5.688889-79.644445-11.377778-5.688889-28.444444-11.377778-39.822222-11.377777z"  horiz-adv-x="1024" />

    
    <glyph glyph-name="jiantouyou" unicode="&#58926;" d="M312.888889-99.555556c-17.066667 0-28.444444 5.688889-39.822222 17.066667-22.755556 22.755556-17.066667 56.888889 5.688889 79.644445l364.088888 329.955555c11.377778 11.377778 17.066667 22.755556 17.066667 34.133333 0 11.377778-5.688889 22.755556-17.066667 34.133334L273.066667 708.266667c-22.755556 22.755556-28.444444 56.888889-5.688889 79.644444 22.755556 22.755556 56.888889 28.444444 79.644444 5.688889l364.088889-312.888889c34.133333-28.444444 56.888889-73.955556 56.888889-119.466667s-17.066667-85.333333-51.2-119.466666l-364.088889-329.955556c-11.377778-5.688889-28.444444-11.377778-39.822222-11.377778z"  horiz-adv-x="1024" />

    
    <glyph glyph-name="jiantouxia" unicode="&#58927;" d="M517.688889 99.555556c-45.511111 0-85.333333 17.066667-119.466667 51.2L73.955556 514.844444c-22.755556 22.755556-17.066667 56.888889 5.688888 79.644445 22.755556 22.755556 56.888889 17.066667 79.644445-5.688889l329.955555-364.088889c5.688889-5.688889 17.066667-11.377778 28.444445-11.377778s22.755556 5.688889 34.133333 17.066667l312.888889 364.088889c22.755556 22.755556 56.888889 28.444444 79.644445 5.688889 22.755556-22.755556 28.444444-56.888889 5.688888-79.644445L637.155556 156.444444c-28.444444-39.822222-68.266667-56.888889-119.466667-56.888888 5.688889 0 0 0 0 0z"  horiz-adv-x="1024" />

    
    <glyph glyph-name="sousuo" unicode="&#58930;" d="M474.453333 11.946667c-225.28 0-409.6 184.32-409.6 409.6s184.32 409.6 409.6 409.6 409.6-184.32 409.6-409.6-184.32-409.6-409.6-409.6z m0 68.266666c187.733333 0 341.333333 153.6 341.333334 341.333334s-153.6 341.333333-341.333334 341.333333-341.333333-153.6-341.333333-341.333333 153.6-341.333333 341.333333-341.333334z m252.586667-54.613333c-13.653333 13.653333-10.24 37.546667 3.413333 47.786667s37.546667 10.24 47.786667-3.413334l64.853333-78.506666c13.653333-13.653333 10.24-37.546667-3.413333-47.786667s-37.546667-10.24-47.786667 3.413333l-64.853333 78.506667z"  horiz-adv-x="1024" />

    
    <glyph glyph-name="zhiding" unicode="&#58933;" d="M511.5648 537.6a12.7616 12.7616 0 0 1-9.6-3.8784L355.584 383.0912a12.8 12.8 0 1 1 18.368-17.8432L499.2 494.144V166.4a12.8 12.8 0 0 1 25.6 0V495.488l120.768-126.8736a12.8 12.8 0 1 1 18.5472 17.6512l-140.288 147.3536a12.7744 12.7744 0 0 1-10.5472 3.9168 12.9536 12.9536 0 0 1-1.7152 0.0512zM512-128C229.2352-128 0 101.2352 0 384S229.2352 896 512 896s512-229.2352 512-512-229.2352-512-512-512zM320 576h384a12.8 12.8 0 0 1 0 25.6H320a12.8 12.8 0 0 1 0-25.6z"  horiz-adv-x="1024" />

    
    <glyph glyph-name="guanyanren" unicode="&#58943;" d="M277.568 53.290667A403.477333 403.477333 0 0 1 512-21.333333c87.36 0 168.256 27.626667 234.432 74.624C740.885333 177.962667 638.058667 277.333333 512 277.333333c-126.037333 0-228.864-99.370667-234.432-224.042666z m-39.637333 32.064c15.36 99.413333 83.498667 181.376 174.890666 216.384A213.312 213.312 0 0 0 298.666667 490.666667c0 117.824 95.509333 213.333333 213.333333 213.333333s213.333333-95.509333 213.333333-213.333333a213.312 213.312 0 0 0-114.154666-188.928c91.392-34.986667 159.530667-116.970667 174.890666-216.384A404.266667 404.266667 0 0 1 917.333333 384c0 223.850667-181.482667 405.333333-405.333333 405.333333S106.666667 607.850667 106.666667 384a404.266667 404.266667 0 0 1 131.264-298.645333zM512-64C264.576-64 64 136.576 64 384S264.576 832 512 832s448-200.576 448-448-200.576-448-448-448z m0 384a170.666667 170.666667 0 1 1 0 341.333333 170.666667 170.666667 0 0 1 0-341.333333z"  horiz-adv-x="1024" />

    
    <glyph glyph-name="daifukuan" unicode="&#58944;" d="M146.645333 299.989333a21.717333 21.717333 0 0 0-8.789333 7.061334L68.224 402.133333a21.824 21.824 0 1 0 35.2 25.792l27.690667-37.802666C139.2 611.968 321.6 789.333333 545.408 789.333333 774.4 789.333333 960 603.733333 960 374.762667s-185.6-414.592-414.570667-414.592c-147.882667 0-282.24 78.08-356.48 202.837333a21.824 21.824 0 1 0 37.482667 22.314667 370.688 370.688 0 0 1 318.997333-181.504c204.864 0 370.922667 166.08 370.922667 370.944 0 204.864-166.058667 370.922667-370.922667 370.922666-204.864 0-370.944-166.058667-370.944-370.922666 0-17.621333 1.216-35.072 3.626667-52.266667a21.824 21.824 0 0 0-31.466667-22.506667z m420.586667 74.773334v-65.472h152.746667a21.824 21.824 0 0 0 0-43.626667h-152.746667v-130.922667a21.824 21.824 0 1 0-43.626667 0v130.922667h-152.746666a21.824 21.824 0 0 0 0 43.626667h152.746666v65.472h-152.746666a21.824 21.824 0 0 0 0 43.626666h140.202666l-151.936 124.992a21.824 21.824 0 1 0 27.712 33.706667l159.637334-131.306667L706.133333 577.066667a21.824 21.824 0 1 0 27.733334-33.706667l-151.957334-124.970667h138.090667a21.824 21.824 0 0 0 0-43.626666h-152.746667z"  horiz-adv-x="1024" />

    
    <glyph glyph-name="qiandao" unicode="&#58945;" d="M704 725.333333H320v-53.333333a21.333333 21.333333 0 0 0-42.666667 0V725.333333h-42.666666a106.666667 106.666667 0 0 1-106.666667-106.666666v-85.333334h768v85.333334a106.666667 106.666667 0 0 1-106.666667 106.666666h-42.666666v-53.333333a21.333333 21.333333 0 0 0-42.666667 0V725.333333z m42.666667 42.666667h42.666666a149.333333 149.333333 0 0 0 149.333334-149.333333v-512a149.333333 149.333333 0 0 0-149.333334-149.333334H234.666667a149.333333 149.333333 0 0 0-149.333334 149.333334V618.666667a149.333333 149.333333 0 0 0 149.333334 149.333333h42.666666V800a21.333333 21.333333 0 0 0 42.666667 0V768h384V800a21.333333 21.333333 0 0 0 42.666667 0V768z m149.333333-277.333333H128v-384a106.666667 106.666667 0 0 1 106.666667-106.666667h554.666666a106.666667 106.666667 0 0 1 106.666667 106.666667V490.666667zM327.210667 253.696a21.333333 21.333333 0 0 0 28.245333 32l98.048-86.549333a21.333333 21.333333 0 0 1 29.866667 1.642666l179.882666 197.568a21.333333 21.333333 0 0 0 31.552-28.714666l-179.861333-197.568a64 64 0 0 0-89.664-4.906667l-98.069333 86.528z"  horiz-adv-x="1024" />

    
    <glyph glyph-name="changyonggoupiaorenshanchu" unicode="&#58949;" d="M96 576a32 32 0 1 0 0 64h832a32 32 0 0 0 0-64H96z m736 0h64v-448a160 160 0 0 0-160-160H288a160 160 0 0 0-160 160V576h64v-96H128v96h64v-448a96 96 0 0 1 96-96h448a96 96 0 0 1 96 96V576z m-512-112a32 32 0 0 0 64 0v-320a32 32 0 0 0-64 0v320z m320 0a32 32 0 0 0 64 0v-320a32 32 0 0 0-64 0v320zM288 640H224V704a96 96 0 0 0 96 96h384a96 96 0 0 0 96-96v-64h-64V672h64v-32h-64V704a32 32 0 0 1-32 32H320a32 32 0 0 1-32-32v-64z"  horiz-adv-x="1024" />

    
    <glyph glyph-name="cainixihuan" unicode="&#58962;" d="M294.144 327.136a13.6 13.6 0 0 1 1.344-1.664l154.56-164.928c33.952-39.968 90.72-39.968 125.12 0.48l153.6 164.864a140.16 140.16 0 0 1 3.776 4.032l2.272 2.432a13.536 13.536 0 0 1 1.792 2.368c20.48 25.6 31.392 57.696 31.392 92.832a148.448 148.448 0 0 1-256 102.304 148.448 148.448 0 0 1-256-102.304c0-37.12 14.08-73.408 38.144-100.416zM512-32C282.24-32 96 154.24 96 384S282.24 800 512 800s416-186.24 416-416-186.24-416-416-416z"  horiz-adv-x="1024" />

    
    <glyph glyph-name="biaoqing" unicode="&#58883;" d="M512 674.909091c160.581818 0 290.909091-130.327273 290.909091-290.909091S672.581818 93.090909 512 93.090909 221.090909 223.418182 221.090909 384 351.418182 674.909091 512 674.909091M512 709.818182C332.8 709.818182 186.181818 563.2 186.181818 384s146.618182-325.818182 325.818182-325.818182 325.818182 146.618182 325.818182 325.818182S691.2 709.818182 512 709.818182zM681.890909 337.454545c-16.290909-79.127273-86.109091-139.636364-169.890909-139.636363s-155.927273 60.509091-169.890909 139.636363h339.781818m39.563636 34.909091H302.545455c0-116.363636 93.090909-209.454545 209.454545-209.454545s209.454545 93.090909 209.454545 209.454545zM384 500.363636c-18.618182 0-34.909091-16.290909-34.909091-34.909091s16.290909-34.909091 34.909091-34.90909 34.909091 16.290909 34.909091 34.90909-16.290909 34.909091-34.909091 34.909091zM640 500.363636c-18.618182 0-34.909091-16.290909-34.909091-34.909091s16.290909-34.909091 34.909091-34.90909 34.909091 16.290909 34.909091 34.90909-16.290909 34.909091-34.909091 34.909091z"  horiz-adv-x="1024" />

    
    <glyph glyph-name="biaoqing1" unicode="&#58888;" d="M421.236364 411.927273h-144.290909c-34.909091 0-65.163636 27.927273-65.163637 65.163636v144.290909c0 34.909091 27.927273 65.163636 65.163637 65.163637h144.290909c34.909091 0 65.163636-27.927273 65.163636-65.163637V477.090909c-2.327273-37.236364-30.254545-65.163636-65.163636-65.163636z m-144.290909 235.054545c-16.290909 0-30.254545-13.963636-30.254546-30.254545v-144.290909c0-16.290909 13.963636-30.254545 30.254546-30.254546h144.290909c16.290909 0 30.254545 13.963636 30.254545 30.254546V616.727273c0 16.290909-13.963636 30.254545-30.254545 30.254545h-144.290909zM747.054545 411.927273h-144.290909c-34.909091 0-65.163636 27.927273-65.163636 65.163636v144.290909c0 34.909091 27.927273 65.163636 65.163636 65.163637h144.290909c34.909091 0 65.163636-27.927273 65.163637-65.163637V477.090909c-2.327273-37.236364-30.254545-65.163636-65.163637-65.163636z m-144.290909 235.054545c-16.290909 0-30.254545-13.963636-30.254545-30.254545v-144.290909c0-16.290909 13.963636-30.254545 30.254545-30.254546h144.290909c16.290909 0 30.254545 13.963636 30.254546 30.254546V616.727273c0 16.290909-13.963636 30.254545-30.254546 30.254545h-144.290909zM421.236364 86.109091h-144.290909c-34.909091 0-65.163636 27.927273-65.163637 65.163636v144.290909c0 34.909091 27.927273 65.163636 65.163637 65.163637h144.290909c34.909091 0 65.163636-27.927273 65.163636-65.163637V151.272727c-2.327273-37.236364-30.254545-65.163636-65.163636-65.163636z m-144.290909 235.054545c-16.290909 0-30.254545-13.963636-30.254546-30.254545v-144.290909c0-16.290909 13.963636-30.254545 30.254546-30.254546h144.290909c16.290909 0 30.254545 13.963636 30.254545 30.254546V290.909091c0 16.290909-13.963636 30.254545-30.254545 30.254545h-144.290909zM747.054545 86.109091h-144.290909c-34.909091 0-65.163636 27.927273-65.163636 65.163636v144.290909c0 34.909091 27.927273 65.163636 65.163636 65.163637h144.290909c34.909091 0 65.163636-27.927273 65.163637-65.163637V151.272727c-2.327273-37.236364-30.254545-65.163636-65.163637-65.163636z m-144.290909 235.054545c-16.290909 0-30.254545-13.963636-30.254545-30.254545v-144.290909c0-16.290909 13.963636-30.254545 30.254545-30.254546h144.290909c16.290909 0 30.254545 13.963636 30.254546 30.254546V290.909091c0 16.290909-13.963636 30.254545-30.254546 30.254545h-144.290909z"  horiz-adv-x="1024" />

    
    <glyph glyph-name="biaoqing2" unicode="&#58890;" d="M321.163636 86.109091h-76.8c-23.272727 0-41.890909 18.618182-41.890909 41.890909V435.2c0 23.272727 18.618182 41.890909 41.890909 41.890909h76.8v-390.981818z m-76.8 353.745454c-2.327273 0-6.981818-2.327273-6.981818-6.981818V128c0-2.327273 2.327273-6.981818 6.981818-6.981818h41.890909V439.854545h-41.890909zM709.818182 86.109091H349.090909V463.127273l121.018182 197.818182c6.981818 11.636364 20.945455 18.618182 34.909091 18.618181H581.818182c18.618182 0 34.909091-9.309091 46.545454-23.272727s13.963636-32.581818 9.309091-51.2l-39.563636-123.345454c0-2.327273 0-2.327273 2.327273-4.654546s2.327273-2.327273 4.654545-2.327273h151.272727c34.909091 0 65.163636-27.927273 65.163637-65.163636V197.818182c0-60.509091-51.2-111.709091-111.709091-111.709091z m-325.818182 34.909091h325.818182c41.890909 0 76.8 34.909091 76.8 76.8v214.109091c0 16.290909-13.963636 30.254545-30.254546 30.254545H605.090909c-13.963636 0-25.6 6.981818-32.581818 16.290909-6.981818 9.309091-9.309091 23.272727-6.981818 34.909091L605.090909 616.727273c2.327273 6.981818 0 13.963636-4.654545 20.945454-4.654545 6.981818-11.636364 9.309091-18.618182 9.309091h-76.8c-2.327273 0-4.654545 0-4.654546-2.327273l-116.363636-190.836363v-332.8z"  horiz-adv-x="1024" />

    
    <glyph glyph-name="biaoqing3" unicode="&#58894;" d="M602.763636 328.145455c69.818182 32.581818 118.690909 102.4 118.690909 183.854545 0 111.709091-90.763636 204.8-204.8 204.8s-204.8-90.763636-204.8-204.8c0-79.127273 46.545455-148.945455 114.036364-181.527273-109.381818-34.909091-188.509091-139.636364-188.509091-260.654545v-18.618182h546.909091v18.618182c2.327273 118.690909-74.472727 218.763636-181.527273 258.327273zM349.090909 512c0 93.090909 76.8 169.890909 169.890909 169.890909s169.890909-76.8 169.890909-169.890909-76.8-169.890909-169.890909-169.890909-169.890909 76.8-169.890909 169.890909z m-74.472727-425.890909c9.309091 123.345455 111.709091 221.090909 237.381818 221.090909 125.672727 0 228.072727-97.745455 237.381818-221.090909H274.618182zM628.363636 470.109091c2.327273 9.309091-2.327273 18.618182-11.636363 23.272727-9.309091 2.327273-18.618182-2.327273-23.272728-11.636363-11.636364-32.581818-41.890909-53.527273-76.8-53.527273-34.909091 0-65.163636 20.945455-76.8 53.527273-2.327273 9.309091-13.963636 13.963636-23.272727 11.636363-9.309091-2.327273-13.963636-13.963636-11.636363-23.272727 16.290909-46.545455 60.509091-76.8 109.381818-76.8 53.527273-2.327273 97.745455 30.254545 114.036363 76.8z"  horiz-adv-x="1024" />

    
    <glyph glyph-name="biaoqing4" unicode="&#58895;" d="M544.581818 325.818182c72.145455 32.581818 118.690909 104.727273 118.690909 186.181818 0 51.2-18.618182 100.072727-53.527272 137.309091-20.945455 20.945455-46.545455 39.563636-72.145455 51.2l-20.945455 6.981818c-4.654545 2.327273-9.309091 2.327273-16.290909 4.654546-4.654545 0-9.309091 2.327273-13.963636 2.327272h-25.6c-111.709091 0-204.8-90.763636-204.8-204.8 0-79.127273 46.545455-148.945455 114.036364-181.527272-109.381818-34.909091-188.509091-139.636364-188.509091-260.654546v-18.618182h546.909091v18.618182c0 20.945455-2.327273 41.890909-6.981819 62.836364-20.945455 93.090909-88.436364 165.236364-176.872727 195.490909z m86.109091 186.181818c0-67.490909-39.563636-128-100.072727-153.6 0 0-2.327273 0-4.654546-2.327273-4.654545-2.327273-9.309091-4.654545-16.290909-4.654545-2.327273 0-2.327273 0-4.654545-2.327273-2.327273 0-6.981818-2.327273-9.309091-2.327273h-2.327273c-4.654545 0-9.309091-2.327273-13.963636-2.327272h-16.290909c-93.090909 0-167.563636 76.8-167.563637 167.563636s76.8 167.563636 167.563637 167.563636h2.327272c9.309091 0 16.290909 0 25.6-2.327272h4.654546c4.654545 0 6.981818-2.327273 11.636364-2.327273 2.327273 0 2.327273 0 4.654545-2.327273 4.654545-2.327273 9.309091-2.327273 13.963636-4.654545 23.272727-9.309091 44.218182-23.272727 60.509091-41.890909 27.927273-30.254545 44.218182-72.145455 44.218182-114.036364zM337.454545 86.109091H216.436364c9.309091 123.345455 111.709091 221.090909 237.381818 221.090909 9.309091 0 20.945455 0 30.254545-2.327273h4.654546c11.636364-2.327273 20.945455-4.654545 32.581818-6.981818 83.781818-23.272727 146.618182-90.763636 167.563636-174.545454 2.327273-11.636364 4.654545-23.272727 4.654546-37.236364H337.454545zM700.509091 337.454545c53.527273 27.927273 90.763636 83.781818 90.763636 151.272728 0 83.781818-62.836364 155.927273-144.290909 167.563636-9.309091 2.327273-18.618182-4.654545-18.618182-13.963636-2.327273-9.309091 4.654545-18.618182 13.963637-18.618182 65.163636-9.309091 114.036364-67.490909 114.036363-132.654546 0-74.472727-60.509091-134.981818-134.981818-134.981818h-4.654545c-9.309091 0-18.618182-6.981818-18.618182-18.618182s6.981818-18.618182 18.618182-18.618181c100.072727 0 181.527273-76.8 190.836363-174.545455h-58.181818c-9.309091 0-18.618182-6.981818-18.618182-18.618182s6.981818-18.618182 18.618182-18.618182h93.090909V128c0 95.418182-58.181818 176.872727-141.963636 209.454545z"  horiz-adv-x="1024" />

    
    <glyph glyph-name="biaoqing5" unicode="&#58898;" d="M395.636364 384m-34.909091 0a34.909091 34.909091 0 1 1 69.818182 0 34.909091 34.909091 0 1 1-69.818182 0ZM512 384m-34.909091 0a34.909091 34.909091 0 1 1 69.818182 0 34.909091 34.909091 0 1 1-69.818182 0ZM628.363636 384m-34.909091 0a34.909091 34.909091 0 1 1 69.818182 0 34.909091 34.909091 0 1 1-69.818182 0ZM512 86.109091C349.090909 86.109091 216.436364 221.090909 216.436364 384S349.090909 679.563636 512 679.563636 809.890909 546.909091 809.890909 384c0-55.854545-16.290909-111.709091-46.545454-158.254545l37.236363-137.309091-141.963636 37.236363c-44.218182-25.6-95.418182-39.563636-146.618182-39.563636z m0 558.545454c-144.290909 0-262.981818-116.363636-262.981818-262.981818s116.363636-262.981818 262.981818-262.981818c46.545455 0 93.090909 13.963636 134.981818 37.236364l6.981818 4.654545 97.745455-25.6-25.6 93.090909 4.654545 6.981818c30.254545 44.218182 44.218182 93.090909 44.218182 146.618182 0 146.618182-118.690909 262.981818-262.981818 262.981818z"  horiz-adv-x="1024" />

    
    <glyph glyph-name="biaoqing6" unicode="&#58899;" d="M744.727273 563.2H372.363636c-9.309091 0-18.618182 6.981818-18.618181 18.618182s6.981818 18.618182 18.618181 18.618182h372.363637c9.309091 0 18.618182-6.981818 18.618182-18.618182s-9.309091-18.618182-18.618182-18.618182zM744.727273 365.381818H372.363636c-9.309091 0-18.618182 6.981818-18.618181 18.618182s6.981818 18.618182 18.618181 18.618182h372.363637c9.309091 0 18.618182-6.981818 18.618182-18.618182s-9.309091-18.618182-18.618182-18.618182zM744.727273 167.563636H372.363636c-9.309091 0-18.618182 6.981818-18.618181 18.618182s6.981818 18.618182 18.618181 18.618182h372.363637c9.309091 0 18.618182-6.981818 18.618182-18.618182s-9.309091-18.618182-18.618182-18.618182zM302.545455 563.2h-23.272728c-9.309091 0-18.618182 6.981818-18.618182 18.618182s6.981818 18.618182 18.618182 18.618182h23.272728c9.309091 0 18.618182-6.981818 18.618181-18.618182s-9.309091-18.618182-18.618181-18.618182zM302.545455 365.381818h-23.272728c-9.309091 0-18.618182 6.981818-18.618182 18.618182s6.981818 18.618182 18.618182 18.618182h23.272728c9.309091 0 18.618182-6.981818 18.618181-18.618182s-9.309091-18.618182-18.618181-18.618182zM302.545455 167.563636h-23.272728c-9.309091 0-18.618182 6.981818-18.618182 18.618182s6.981818 18.618182 18.618182 18.618182h23.272728c9.309091 0 18.618182-6.981818 18.618181-18.618182s-9.309091-18.618182-18.618181-18.618182z"  horiz-adv-x="1024" />

    
    <glyph glyph-name="biaoqing7" unicode="&#58900;" d="M512 677.236364C351.418182 677.236364 218.763636 544.581818 218.763636 384S351.418182 90.763636 512 90.763636 805.236364 223.418182 805.236364 384 672.581818 677.236364 512 677.236364z m0-551.563637c-141.963636 0-258.327273 116.363636-258.327273 258.327273s116.363636 258.327273 258.327273 258.327273 258.327273-116.363636 258.327273-258.327273-116.363636-258.327273-258.327273-258.327273zM649.309091 400.290909h-121.018182v121.018182c0 9.309091-6.981818 18.618182-18.618182 18.618182s-18.618182-6.981818-18.618182-18.618182v-121.018182h-121.018181c-9.309091 0-18.618182-6.981818-18.618182-18.618182s6.981818-18.618182 18.618182-18.618182h121.018181v-121.018181c0-9.309091 6.981818-18.618182 18.618182-18.618182s18.618182 6.981818 18.618182 18.618182v121.018181h121.018182c9.309091 0 18.618182 6.981818 18.618182 18.618182s-9.309091 18.618182-18.618182 18.618182z"  horiz-adv-x="1024" />

    
    <glyph glyph-name="biaoqing8" unicode="&#58901;" d="M793.6 372.363636L512 649.309091 230.4 372.363636c-6.981818-6.981818-6.981818-18.618182 0-25.6 6.981818-6.981818 18.618182-6.981818 25.6 0l13.963636 13.963637v-225.745455c0-30.254545 25.6-55.854545 55.854546-55.854545h374.690909c30.254545 0 55.854545 25.6 55.854545 55.854545V360.727273l13.963637-13.963637c2.327273-2.327273 6.981818-4.654545 11.636363-4.654545s9.309091 2.327273 11.636364 4.654545c6.981818 6.981818 6.981818 18.618182 0 25.6zM463.127273 114.036364v165.236363c0 2.327273 2.327273 6.981818 6.981818 6.981818h83.781818c2.327273 0 6.981818-2.327273 6.981818-6.981818v-165.236363h-97.745454z m256 20.945454c0-11.636364-9.309091-20.945455-20.945455-20.945454h-104.727273v165.236363c0 23.272727-18.618182 41.890909-41.890909 41.890909h-83.781818c-23.272727 0-41.890909-18.618182-41.890909-41.890909v-165.236363h-104.727273c-11.636364 0-20.945455 9.309091-20.945454 20.945454V395.636364l207.127273 204.8 207.127272-204.8v-260.654546z"  horiz-adv-x="1024" />

    
    <glyph glyph-name="biaoqing9" unicode="&#58904;" d="M512 491.054545c-58.181818 0-107.054545-46.545455-107.054545-107.054545s46.545455-107.054545 107.054545-107.054545 107.054545 46.545455 107.054545 107.054545-48.872727 107.054545-107.054545 107.054545z m0-179.2c-39.563636 0-72.145455 32.581818-72.145455 72.145455s32.581818 72.145455 72.145455 72.145455 72.145455-32.581818 72.145455-72.145455-32.581818-72.145455-72.145455-72.145455zM777.309091 453.818182H721.454545c-9.309091 27.927273-23.272727 53.527273-44.218181 74.472727l27.927272 48.872727c9.309091 16.290909 4.654545 37.236364-13.963636 48.872728l-60.509091 34.909091c-6.981818 4.654545-18.618182 6.981818-25.6 4.654545-9.309091-2.327273-16.290909-9.309091-20.945454-16.290909l-27.927273-48.872727c-30.254545 6.981818-58.181818 6.981818-86.109091 0L442.181818 649.309091c-4.654545 6.981818-11.636364 13.963636-20.945454 16.290909-9.309091 2.327273-18.618182 2.327273-25.6-4.654545l-60.509091-34.909091c-16.290909-9.309091-23.272727-30.254545-13.963637-48.872728l27.927273-48.872727c-18.618182-20.945455-34.909091-46.545455-44.218182-74.472727h-55.854545c-18.618182 0-34.909091-16.290909-34.909091-34.909091v-69.818182c0-18.618182 16.290909-34.909091 34.909091-34.909091H302.545455c9.309091-27.927273 23.272727-53.527273 44.218181-74.472727l-27.927272-48.872727c-9.309091-16.290909-4.654545-37.236364 13.963636-48.872728l60.509091-34.909091c6.981818-4.654545 18.618182-6.981818 25.6-4.654545 9.309091 2.327273 16.290909 9.309091 20.945454 16.290909l27.927273 48.872727c30.254545-6.981818 58.181818-6.981818 86.109091 0l27.927273-48.872727c4.654545-6.981818 11.636364-13.963636 20.945454-16.290909 2.327273 0 6.981818-2.327273 9.309091-2.327273 6.981818 0 11.636364 2.327273 18.618182 4.654546l60.509091 34.909091c16.290909 9.309091 23.272727 30.254545 13.963636 48.872727l-27.927272 48.872727c18.618182 20.945455 34.909091 46.545455 44.218181 74.472727h55.854546c18.618182 0 34.909091 16.290909 34.909091 34.909091v69.818182c0 23.272727-16.290909 37.236364-34.909091 37.236364z m0-104.727273h-81.454546l-2.327272-13.963636c-9.309091-30.254545-25.6-60.509091-46.545455-83.781818l-11.636363-6.981819 41.890909-72.145454-62.836364-34.909091-41.890909 72.145454-13.963636-2.327272c-32.581818-9.309091-62.836364-9.309091-95.418182 0l-13.963637 2.327272-41.890909-72.145454-58.181818 34.909091 41.890909 72.145454-9.309091 9.309091c-23.272727 23.272727-39.563636 51.2-46.545454 83.781818l-2.327273 13.963637h-83.781818v72.145454h81.454545l2.327273 13.963637c9.309091 30.254545 25.6 60.509091 46.545455 83.781818l9.30909 9.309091-39.563636 65.163636 60.509091 34.909091 41.890909-72.145454 13.963636 2.327272c32.581818 9.309091 62.836364 9.309091 95.418182 0l13.963637-2.327272 41.890909 72.145454-18.618182 9.309091 76.8-44.218182-39.563636-72.145454 9.30909-9.309091c23.272727-23.272727 39.563636-51.2 46.545455-83.781818l2.327273-13.963637h83.781818v-67.490909z"  horiz-adv-x="1024" />

    
    <glyph glyph-name="biaoqing10" unicode="&#58905;" d="M512 679.563636c-58.181818 0-114.036364-16.290909-160.581818-48.872727l-2.327273-2.327273h-2.327273v-2.327272l-2.327272-2.327273s0-2.327273-2.327273-2.327273V614.4s0-2.327273 2.327273-2.327273v-2.327272l2.327272-2.327273v-2.327273l102.4-102.4c2.327273-2.327273 6.981818-4.654545 11.636364-4.654545s9.309091 2.327273 11.636364 4.654545c6.981818 6.981818 6.981818 18.618182 0 25.6l-86.109091 86.109091c37.236364 20.945455 81.454545 30.254545 123.345454 30.254545 144.290909 0 262.981818-116.363636 262.981818-262.981818 0-51.2-13.963636-100.072727-41.890909-141.963636-4.654545-6.981818-2.327273-18.618182 4.654546-23.272727 2.327273-2.327273 6.981818-2.327273 9.309091-2.327273 4.654545 0 11.636364 2.327273 13.963636 6.981818 30.254545 48.872727 48.872727 104.727273 48.872727 160.581818C809.890909 546.909091 674.909091 679.563636 512 679.563636zM681.890909 148.945455V151.272727v2.327273s0 2.327273-2.327273 2.327273v2.327272l-2.327272 2.327273v2.327273l-102.4 102.4c-6.981818 6.981818-18.618182 6.981818-25.6 0s-6.981818-18.618182 0-25.6l86.109091-86.109091c-37.236364-20.945455-81.454545-30.254545-123.345455-30.254545-144.290909 0-262.981818 116.363636-262.981818 262.981818 0 51.2 13.963636 100.072727 41.890909 141.963636 4.654545 6.981818 2.327273 18.618182-4.654546 23.272727-6.981818 4.654545-18.618182 2.327273-23.272727-4.654545-30.254545-48.872727-46.545455-104.727273-46.545454-162.909091 0-162.909091 132.654545-297.890909 297.890909-297.890909 58.181818 0 114.036364 16.290909 160.581818 48.872727l2.327273 2.327273h2.327272v2.327273l2.327273 2.327272s0 2.327273 2.327273 2.327273c-4.654545 2.327273-2.327273 2.327273-2.327273 4.654546z"  horiz-adv-x="1024" />

    
    <glyph glyph-name="biaoqing11" unicode="&#58906;" d="M814.545455 365.381818H209.454545c-9.309091 0-18.618182 6.981818-18.618181 18.618182s6.981818 18.618182 18.618181 18.618182h605.09091c9.309091 0 18.618182-6.981818 18.618181-18.618182s-9.309091-18.618182-18.618181-18.618182zM763.345455 442.181818c-9.309091 0-18.618182 6.981818-18.618182 18.618182v125.672727c0 18.618182-13.963636 32.581818-32.581818 32.581818H309.527273c-18.618182 0-32.581818-13.963636-32.581818-32.581818v-125.672727c0-9.309091-6.981818-18.618182-18.618182-18.618182s-18.618182 6.981818-18.618182 18.618182v125.672727c0 37.236364 30.254545 67.490909 67.490909 67.490909h402.618182c37.236364 0 67.490909-30.254545 67.490909-67.490909v-125.672727c4.654545-11.636364-4.654545-18.618182-13.963636-18.618182zM714.472727 114.036364H309.527273c-37.236364 0-67.490909 30.254545-67.490909 67.490909v125.672727c0 9.309091 6.981818 18.618182 18.618181 18.618182s18.618182-6.981818 18.618182-18.618182v-125.672727c0-18.618182 13.963636-32.581818 32.581818-32.581818h402.618182c18.618182 0 32.581818 13.963636 32.581818 32.581818v125.672727c0 9.309091 6.981818 18.618182 18.618182 18.618182s18.618182-6.981818 18.618182-18.618182v-125.672727c-2.327273-37.236364-32.581818-67.490909-69.818182-67.490909z"  horiz-adv-x="1024" />

    
    <glyph glyph-name="biaoqing12" unicode="&#58909;" d="M819.2 97.745455L674.909091 242.036364c46.545455 48.872727 74.472727 114.036364 74.472727 186.181818 0 151.272727-123.345455 274.618182-274.618182 274.618182-151.272727 0-274.618182-123.345455-274.618181-274.618182 0-151.272727 123.345455-274.618182 274.618181-274.618182 65.163636 0 128 23.272727 174.545455 62.836364l144.290909-144.290909c2.327273-2.327273 6.981818-4.654545 11.636364-4.654546s9.309091 2.327273 11.636363 4.654546c6.981818 6.981818 6.981818 18.618182 2.327273 25.6zM235.054545 428.218182c0 132.654545 107.054545 239.709091 239.709091 239.709091 132.654545 0 239.709091-107.054545 239.709091-239.709091 0-132.654545-107.054545-239.709091-239.709091-239.709091-132.654545 0-239.709091 107.054545-239.709091 239.709091z"  horiz-adv-x="1024" />

    
    <glyph glyph-name="biaoqing13" unicode="&#58913;" d="M809.890909 223.418182c-2.327273 2.327273-4.654545 2.327273-9.309091 2.327273H379.345455l-11.636364 72.145454h407.272727c20.945455 0 37.236364 13.963636 41.890909 34.909091l32.581818 195.490909c2.327273 11.636364-2.327273 25.6-9.30909 34.909091-6.981818 9.309091-18.618182 13.963636-32.581819 13.963636H321.163636l-16.290909 93.090909H169.890909c-9.309091 0-18.618182-6.981818-18.618182-18.618181s6.981818-18.618182 18.618182-18.618182h104.727273l69.818182-414.254546c-25.6-6.981818-44.218182-30.254545-44.218182-58.181818 0-34.909091 27.927273-62.836364 62.836363-62.836363 34.909091 0 62.836364 27.927273 62.836364 62.836363 0 11.636364-2.327273 20.945455-6.981818 30.254546h337.454545c-4.654545-9.309091-6.981818-18.618182-6.981818-30.254546 0-34.909091 27.927273-62.836364 62.836364-62.836363s62.836364 27.927273 62.836363 62.836363c-4.654545 34.909091-30.254545 60.509091-65.163636 62.836364z m-2.327273 318.836363c2.327273 0 4.654545-2.327273 4.654546-2.327272s2.327273-2.327273 2.327273-6.981818L781.963636 337.454545c0-4.654545-4.654545-6.981818-6.981818-6.981818H360.727273l-34.909091 209.454546h481.745454zM363.054545 132.654545c-13.963636 0-27.927273 11.636364-27.927272 27.927273s11.636364 27.927273 27.927272 27.927273c13.963636 0 27.927273-11.636364 27.927273-27.927273s-13.963636-27.927273-27.927273-27.927273z m444.509091 0c-13.963636 0-27.927273 11.636364-27.927272 27.927273s11.636364 27.927273 27.927272 27.927273 27.927273-11.636364 27.927273-27.927273-11.636364-27.927273-27.927273-27.927273z"  horiz-adv-x="1024" />

    
    <glyph glyph-name="biaoqing14" unicode="&#58914;" d="M602.763636 535.272727c-6.981818 6.981818-18.618182 6.981818-25.6 0l-67.490909-69.818182-67.490909 69.818182c-6.981818 6.981818-18.618182 6.981818-25.6 0-6.981818-6.981818-6.981818-18.618182 0-25.6l51.2-53.527272h-37.236363c-9.309091 0-18.618182-6.981818-18.618182-18.618182s6.981818-18.618182 18.618182-18.618182h62.836363v-55.854546h-62.836363c-9.309091 0-18.618182-6.981818-18.618182-18.618181s6.981818-18.618182 18.618182-18.618182h62.836363v-86.109091c0-9.309091 6.981818-18.618182 18.618182-18.618182s18.618182 6.981818 18.618182 18.618182v86.109091h62.836363c9.309091 0 18.618182 6.981818 18.618182 18.618182s-6.981818 18.618182-18.618182 18.618181h-62.836363v55.854546h62.836363c9.309091 0 18.618182 6.981818 18.618182 18.618182s-6.981818 18.618182-18.618182 18.618182h-37.236363l51.2 53.527272c2.327273 6.981818 2.327273 18.618182-4.654546 25.6zM793.6 467.781818l16.290909 2.327273v151.272727c0 20.945455-16.290909 37.236364-37.236364 37.236364H253.672727c-20.945455 0-37.236364-16.290909-37.236363-37.236364v-151.272727l16.290909-2.327273c41.890909-4.654545 74.472727-39.563636 74.472727-83.781818 0-44.218182-32.581818-79.127273-74.472727-83.781818l-16.290909-2.327273v-151.272727c0-20.945455 16.290909-37.236364 37.236363-37.236364h518.981818c20.945455 0 37.236364 16.290909 37.236364 37.236364v151.272727l-16.290909 2.327273c-41.890909 4.654545-74.472727 39.563636-74.472727 83.781818 0 44.218182 32.581818 79.127273 74.472727 83.781818zM684.218182 384c0-55.854545 37.236364-102.4 88.436363-116.363636v-121.018182c0-2.327273 0-2.327273-2.327272-2.327273H253.672727c-2.327273 0-2.327273 2.327273-2.327272 2.327273V267.636364c51.2 11.636364 88.436364 60.509091 88.436363 116.363636s-37.236364 102.4-88.436363 116.363636v121.018182c0 2.327273 0 2.327273 2.327272 2.327273h518.981818c2.327273 0 2.327273-2.327273 2.327273-2.327273V500.363636c-53.527273-13.963636-90.763636-60.509091-90.763636-116.363636z"  horiz-adv-x="1024" />

    
    <glyph glyph-name="dianyuan-" unicode="&#58902;" d="M512-60.09c-60.16 0-118.54 11.79-173.5 35.04-53.08 22.45-100.74 54.58-141.67 95.51-40.93 40.93-73.06 88.59-95.51 141.67-23.25 54.96-35.04 113.34-35.04 173.5 0 49.38 8.02 97.9 23.85 144.21 15.3 44.77 37.6 86.68 66.27 124.56a447.222 447.222 0 0 0 100.75 96.95c39.06 27.26 81.92 47.96 127.4 61.51 12.17 3.63 24.98-3.3 28.61-15.48 3.63-12.17-3.3-24.98-15.48-28.61-168.04-50.06-285.41-207.61-285.41-383.14 0-220.41 179.31-399.72 399.72-399.72 220.41 0 399.72 179.31 399.72 399.72 0 175.51-117.35 333.06-285.37 383.13-12.17 3.63-19.1 16.44-15.47 28.61 3.63 12.17 16.44 19.1 28.61 15.47 45.48-13.55 88.34-34.25 127.39-61.51 38.5-26.88 72.39-59.5 100.73-96.95 28.67-37.88 50.96-79.78 66.26-124.56 15.82-46.31 23.85-94.82 23.85-144.19 0-60.16-11.79-118.54-35.04-173.5-22.45-53.08-54.58-100.74-95.51-141.67s-88.59-73.06-141.67-95.51C630.53-48.3 572.16-60.09 512-60.09zM512 10.62c-50.45 0-99.4 9.88-145.48 29.38-44.51 18.83-84.48 45.77-118.8 80.09-34.32 34.32-61.27 74.29-80.09 118.8-19.49 46.09-29.38 95.03-29.38 145.48 0 22.8 2.07 45.63 6.15 67.87 1.2 6.52 7.45 10.83 13.97 9.64 6.52-1.2 10.83-7.45 9.64-13.97-3.82-20.81-5.75-42.19-5.75-63.53 0-192.85 156.9-349.75 349.75-349.75s349.75 156.9 349.75 349.75c0 82.39-29.2 162.4-82.21 225.29-4.27 5.07-3.63 12.64 1.44 16.91s12.64 3.63 16.91-1.44c27.81-32.99 49.5-70.12 64.49-110.37 15.51-41.66 23.38-85.53 23.38-130.38 0-50.45-9.88-99.4-29.38-145.48-18.83-44.51-45.77-84.48-80.09-118.8-34.32-34.32-74.29-61.27-118.8-80.09-46.1-19.52-95.05-29.4-145.5-29.4zM754.28 641c-2.87 0-5.74 1.02-8.04 3.09a352.27 352.27 0 0 1-41.39 32.1c-5.53 3.66-7.04 11.1-3.38 16.63s11.11 7.04 16.63 3.38a377.347 377.347 0 0 0 44.22-34.29c4.92-4.44 5.31-12.03 0.87-16.95a11.96 11.96 0 0 0-8.91-3.96zM511.9 363.15c-12.7 0-23 10.3-23 23V855.27c0 12.7 10.3 23 23 23s23-10.3 23-23v-469.13c0-12.7-10.3-22.99-23-22.99z"  horiz-adv-x="1024" />

    
    <glyph glyph-name="guanli-" unicode="&#58903;" d="M717.35 523.66h-41.97c-6.63 0-12 5.37-12 12s5.37 12 12 12h41.97c6.63 0 12-5.37 12-12s-5.37-12-12-12zM794.26 523.66h-24.38c-6.63 0-12 5.37-12 12s5.37 12 12 12h24.38c14.7 0 26.67 11.96 26.67 26.67v62.44c0 6.63 5.37 12 12 12s12-5.37 12-12v-62.44c0-27.94-22.73-50.67-50.67-50.67zM367.86 751.77c18.75 0 34-15.25 34-34v-223.86H178c-18.75 0-34 15.25-34 34V751.77h223.86m0 46H98v-269.86c0-44.18 35.82-80 80-80h269.86V717.77c0 44.19-35.81 80-80 80zM879.75 751.77v-223.86c0-18.75-15.25-34-34-34H621.89V717.77c0 18.75 15.25 34 34 34h223.86m46 46H655.89c-44.18 0-80-35.82-80-80v-269.86h269.86c44.18 0 80 35.82 80 80V797.77zM401.86 273.83v-223.86c0-18.75-15.25-34-34-34H144V239.83c0 18.75 15.25 34 34 34h223.86m46 46H178c-44.18 0-80-35.82-80-80v-269.86h269.86c44.18 0 80 35.82 80 80V319.83zM845.75 273.83c18.75 0 34-15.25 34-34v-223.86H655.89c-18.75 0-34 15.25-34 34V273.83h223.86m0 46H575.89v-269.86c0-44.18 35.82-80 80-80h269.86V239.83c0 44.19-35.82 80-80 80z"  horiz-adv-x="1024" />

    
    <glyph glyph-name="jishibu-" unicode="&#58907;" d="M873.42 780.9c2.21 0 4-1.79 4-4v-475.2l-324.5-324.5h-409.5c-2.21 0-4 1.79-4 4V776.9c0 2.21 1.79 4 4 4h730m0 46h-730c-27.61 0-50-22.39-50-50v-795.69c0-27.61 22.39-50 50-50h428.55l351.44 351.44V776.9c0.01 27.61-22.38 50-49.99 50zM594.53-46.36h-46V233.09c0 40.25 32.75 73 73 73h268.14v-46H621.53c-14.89 0-27-12.11-27-27v-279.45zM683.19 610.02H253.31c-12.7 0-23 10.3-23 23s10.3 23 23 23h429.88c12.7 0 23-10.3 23-23s-10.3-23-23-23zM683.19 449.79H253.31c-12.7 0-23 10.3-23 23s10.3 23 23 23h429.88c12.7 0 23-10.3 23-23s-10.3-23-23-23zM463.19 289.56H253.31c-12.7 0-23 10.3-23 23s10.3 23 23 23h209.87c12.7 0 23-10.3 23-23s-10.29-23-22.99-23zM503.92 7.77h-192c-6.63 0-12 5.37-12 12s5.37 12 12 12h192c6.63 0 12-5.37 12-12s-5.38-12-12-12zM258.42 7.77h-13.66c-6.63 0-12 5.37-12 12s5.37 12 12 12h13.66c6.63 0 12-5.37 12-12s-5.37-12-12-12z"  horiz-adv-x="1024" />

    
    <glyph glyph-name="wenjianjia-" unicode="&#58908;" d="M716.47 54.16H674.5c-6.63 0-12 5.37-12 12s5.37 12 12 12h41.97c6.63 0 12-5.37 12-12s-5.37-12-12-12zM793.38 54.16H769c-6.63 0-12 5.37-12 12s5.37 12 12 12h24.38c14.7 0 26.67 11.96 26.67 26.67V217.26c0 6.63 5.37 12 12 12s12-5.37 12-12v-112.44c0-27.93-22.73-50.66-50.67-50.66zM356.65 753.65l40.73-70.55c8.22-14.23 23.4-23 39.84-23h444.21v-644.51H143.14V753.65h213.51m26.56 46H143.14c-25.41 0-46-20.6-46-46V9.58c0-22.09 17.91-40 40-40h750.29c22.09 0 40 17.91 40 40V666.09c0 22.09-17.91 40-40 40H437.22l-54.01 93.56zM896.26 491.09h-769.1c-12.7 0-23 10.3-23 23s10.3 23 23 23h769.1c12.7 0 23-10.3 23-23s-10.3-23-23-23z"  horiz-adv-x="1024" />

    
    <glyph glyph-name="xiangce-" unicode="&#58910;" d="M533.73 150.31c-4.14 0-8.17 2.15-10.4 5.99-46.8 80.91-133.87 131.17-227.23 131.17-37.42 0-73.56-7.71-107.4-22.92-6.04-2.72-13.15-0.02-15.86 6.03-2.72 6.05-0.02 13.15 6.03 15.86 36.96 16.61 76.41 25.03 117.24 25.03 51.15 0 101.36-13.66 145.19-39.49 42.54-25.08 78.09-60.92 102.81-103.66 3.32-5.74 1.36-13.08-4.38-16.4a12.04 12.04 0 0 0-6-1.61zM141.09 239.5c-3.82 0-7.58 1.82-9.91 5.21-3.75 5.46-2.36 12.93 3.11 16.68 4.54 3.11 9.22 6.13 13.91 8.96 5.67 3.43 13.05 1.61 16.48-4.06 3.43-5.67 1.61-13.05-4.06-16.48-4.29-2.6-8.58-5.36-12.74-8.21-2.08-1.41-4.45-2.1-6.79-2.1zM937.73 797.85H87.33c-12.87 0-23.31-10.44-23.31-23.31V-8.84c0-12.87 10.44-23.31 23.31-23.31h850.4c12.87 0 23.31 10.44 23.31 23.31V774.54c0 12.87-10.43 23.31-23.31 23.31z m-22.69-783.99H110.02V279.58c52.22 39.88 117.4 63.6 188.02 63.6 113.34 0 212.66-61.07 266.85-152.02 0.92-1.54 1.84-3.09 2.73-4.65a213.647 213.647 0 0 1 78.24-75.65c30.57-17.12 65.77-26.9 103.23-26.9 67.15 0 127.09 31.39 165.95 80.26v-150.36zM749.09 129.97c-58.87 0-110.67 30.81-140.14 77.15a351.61 351.61 0 0 1-6.39 10.96c-14.7 24.13-32.25 46.46-52.51 66.71-3.81 3.81-7.7 7.51-11.65 11.13-30.01 27.46-64.12 49.38-101.63 65.24-43.95 18.59-90.63 28.02-138.73 28.02s-94.78-9.43-138.73-28.02a355.33 355.33 0 0 1-49.29-25.56V751.85h805.02v-455.92c0-91.51-74.44-165.96-165.95-165.96zM769.78 622.93c21.5 0 39-17.5 39-39s-17.5-39-39-39-39 17.5-39 39 17.5 39 39 39m0 46c-46.94 0-85-38.06-85-85s38.06-85 85-85 85 38.06 85 85c0 46.95-38.05 85-85 85z"  horiz-adv-x="1024" />

    
    <glyph glyph-name="xinxi" unicode="&#58911;" d="M913.33 751.85v-577.57H590.85c-8.94 0-17.41-2.58-24.58-7.12L304.72 41.03v87.24c0 25.41-20.6 46-46 46H109.33V751.85h804m25.42 46H83.92c-11.37 0-20.58-9.22-20.58-20.58v-628.41c0-11.37 9.22-20.58 20.58-20.58h174.8v-160.49L591.17 128.1l-0.31 0.18h347.9c11.37 0 20.58 9.22 20.58 20.58v628.4c-0.01 11.37-9.22 20.59-20.59 20.59zM720.54 427.49H302.12c-12.7 0-23 10.3-23 23s10.3 23 23 23h418.42c12.7 0 23-10.3 23-23s-10.29-23-23-23zM511.33 218.28c-12.7 0-23 10.3-23 23V659.7c0 12.7 10.3 23 23 23s23-10.3 23-23v-418.42c0-12.71-10.29-23-23-23zM745.81 695.29h-41.97c-6.63 0-12 5.37-12 12s5.37 12 12 12h41.97c6.63 0 12-5.37 12-12s-5.37-12-12-12zM861.39 544.19c-6.63 0-12 5.37-12 12V668.63c0 14.7-11.96 26.67-26.67 26.67h-24.38c-6.63 0-12 5.37-12 12s5.37 12 12 12h24.38c27.94 0 50.67-22.73 50.67-50.67v-112.44c0-6.63-5.38-12-12-12z"  horiz-adv-x="1024" />

    
    <glyph glyph-name="xianshiqi-" unicode="&#58912;" d="M910.5 753.84v-577.65h-804V753.84h804m6 46h-816c-22.09 0-40-17.91-40-40v-589.65c0-22.09 17.91-40 40-40h816c22.09 0 40 17.91 40 40V759.84c0 22.09-17.91 40-40 40zM704.65 712.59h-23.91c-6.63 0-12 5.37-12 12s5.37 12 12 12h23.91c6.63 0 12-5.37 12-12s-5.38-12-12-12zM833.78 193.44H183.21c-28.6 0-51.86 22.98-51.86 51.22V685.38c0 28.24 23.27 51.22 51.86 51.22h459.07c6.63 0 12-5.37 12-12s-5.37-12-12-12H183.21c-15.36 0-27.86-12.21-27.86-27.22v-440.72c0-15.01 12.5-27.22 27.86-27.22h650.57c15.36 0 27.86 12.21 27.86 27.22V626.49c0 6.63 5.37 12 12 12s12-5.37 12-12v-381.83c0-28.24-23.26-51.22-51.86-51.22zM765.17-30.22H251.82c-12.7 0-23 10.3-23 23s10.3 23 23 23h513.35c12.7 0 23-10.3 23-23s-10.3-23-23-23zM508.49-24.67c-12.7 0-23 10.3-23 23v146c0 12.7 10.3 23 23 23s23-10.3 23-23v-146c0-12.7-10.29-23-23-23z"  horiz-adv-x="1024" />

    


  </font>
</defs>
</svg>
